<svg width="160" height="40" viewBox="0 0 160 40" fill="none" xmlns="http://www.w3.org/2000/svg" role="img" aria-label="Orca">
  <rect width="40" height="40" rx="10" fill="#111827"/>
  <path d="M26.9 10.5C22.7 8.6 16.7 9 12.8 12.8C7.8 17.8 8.4 26.2 14 30.4C20.2 35 29.5 31.4 31.5 24.5C28.3 26.2 24.2 25.6 21.5 22.9C18.6 20 18.2 15.7 20.2 12.4C22.3 11.5 24.7 10.9 26.9 10.5Z" fill="white"/>
  <path d="M28.7 14.2C29.7 14.2 30.5 13.4 30.5 12.4C30.5 11.4 29.7 10.6 28.7 10.6C27.7 10.6 26.9 11.4 26.9 12.4C26.9 13.4 27.7 14.2 28.7 14.2Z" fill="#818CF8"/>
  <text x="52" y="27" font-family="Inter, ui-sans-serif, system-ui, -apple-system, BlinkMacSystemFont, 'Segoe UI', sans-serif" font-size="22" font-weight="700" fill="#111827">Orca</text>
</svg>
